<svg id="Layer_1" data-name="Layer 1" xmlns="http://www.w3.org/2000/svg" viewBox="0 0 111.77 78.85"><defs><style>.cls-1{fill:#62738d;}</style></defs><title>brain-dark</title><path class="cls-1" d="M67.84,45.26l-.16.08.29.19.06-.11Z"/><path class="cls-1" d="M68.19,20.07a0,0,0,0,1,0,0v0Z"/><path class="cls-1" d="M99.77,18.55A61.69,61.69,0,0,0,76.15,3.28a53.62,53.62,0,0,0-30-2,90.81,90.81,0,0,0-26,9.75A46.36,46.36,0,0,0,5.7,23.73C-.8,32.83-.88,41.82,1.23,47.21c2.52,6.39,7.86,11,15.41,13.41A37.5,37.5,0,0,0,27,62.3c4.34,6.85,9.51,10.29,15.85,10.48,5.53.19,11-2.14,15.87-4.17,1.28-.54,2.47-1.06,3.63-1.49C64.18,66.39,70,70.69,73.47,74l1.71,1.62L74,70.34l11.33,8.51L79.51,64.3a20.37,20.37,0,0,0,17.66-3.79,13,13,0,0,1,3.5-1.52c3.66-1.22,8.69-2.92,10.29-8.61C113.67,40.66,109.5,28.74,99.77,18.55ZM109.53,38l-3.12-2.12a3.14,3.14,0,0,0,.19-1.16,3.48,3.48,0,0,0-2-3.17l1.06-2.82A35.88,35.88,0,0,1,109.53,38ZM98.75,19.55a52.31,52.31,0,0,1,6.12,7.78v0l-1.41,3.79a1.12,1.12,0,0,0-.44-.06,3.47,3.47,0,0,0-2.6,1.14L88.75,26.14,94.22,15.3A56.91,56.91,0,0,1,98.75,19.55ZM50,48.7l7.44-8.45a3.55,3.55,0,0,0,4.23-.35l6.15,5.36.19.16-.06.11L59.66,57.45l-9.08-5.34A3.19,3.19,0,0,0,50.8,51,3.59,3.59,0,0,0,50,48.7Zm-5.18,4.9-3.76,5.91L32,48.89l11.59,2V51A3.38,3.38,0,0,0,44.84,53.6Zm-1-3.92L31.46,47.54,37,38.19a3.29,3.29,0,0,0,1.2.22,4,4,0,0,0,1.16-.19l5.55,9.94,0,0A3.09,3.09,0,0,0,43.87,49.68Zm-23.43-10L6.35,51.25,8.84,37.87a3.62,3.62,0,0,0,3.28-2.17l7.86,2v.22A3.34,3.34,0,0,0,20.44,39.65Zm-.17-3.17-7.88-2a.72.72,0,0,0,0-.25,3.63,3.63,0,0,0-.9-2.35l14.2-12.65a3.94,3.94,0,0,0,1,.51L23.61,34.34h0A3.63,3.63,0,0,0,20.27,36.48ZM27.89,20h0a3.25,3.25,0,0,0,1.14-.19L35.93,32A3.54,3.54,0,0,0,34.6,34.8V35l-7.69,1.63v0a3.57,3.57,0,0,0-2.09-2Zm3.57-4.09,12.27-4.25a3.64,3.64,0,0,0,3.14,1.84H47l3,15L31.3,17.6a3.66,3.66,0,0,0,.21-1.21A2.63,2.63,0,0,0,31.46,15.9Zm34.37,2.25L51.21,28.68l-3-15.44a3.77,3.77,0,0,0,1.87-1.7l15.44,4.63h0a1.07,1.07,0,0,0-.06.43A3.82,3.82,0,0,0,65.83,18.15Zm2.36,1.92h0v0a.86.86,0,0,0,.21,0L68.25,44l-5.77-5,0,0a3.25,3.25,0,0,0,.49-1.73,3.61,3.61,0,0,0-1.52-2.93l6.8-14.16A0,0,0,0,0,68.19,20.07Zm-1.08-.46-6.8,14.11v0a3,3,0,0,0-1-.16,3.42,3.42,0,0,0-2.19.78l0,0-5.33-4.57L66.54,19.15h0a2,2,0,0,0,.54.43Zm-17.72,10L41.29,33a3.6,3.6,0,0,0-3.08-1.73,3.47,3.47,0,0,0-1.22.19L30.13,19.2a2.56,2.56,0,0,0,.55-.54ZM27.18,37.92v-.14l7.69-1.59a3.7,3.7,0,0,0,1.06,1.4l-5.5,9.27L26,40.55A3.56,3.56,0,0,0,27.18,37.92Zm13.27-.3a3.66,3.66,0,0,0,1.36-2.82,3.34,3.34,0,0,0-.08-.7l8.94-3.66,5.63,4.83a3.55,3.55,0,0,0-.57,1.92,3.5,3.5,0,0,0,.81,2.25l-7.45,8.45a3.45,3.45,0,0,0-1.89-.54,3.76,3.76,0,0,0-1.22.21ZM69,46.15l11.59,7.13a3.38,3.38,0,0,0-.29,1.38L61.15,57.45Zm10.65-8.28L69.46,44.23l.19-24.08a3.4,3.4,0,0,0,1-.3l9.8,14.06a3.5,3.5,0,0,0-1.05,2.52A3.71,3.71,0,0,0,79.68,37.87ZM70,45.34l10.32-6.45A3.44,3.44,0,0,0,82.57,40l.52,11.27a3.15,3.15,0,0,0-1.76,1ZM83,32.85a3.53,3.53,0,0,0-1.54.36v0l-9.81-14c.11-.11.19-.22.3-.35l15.19,7.88v0L84,33A3.8,3.8,0,0,0,83,32.85ZM99.5,34,86.42,35.51a3.34,3.34,0,0,0-1.35-2l3.14-6.28,11.51,6A2.47,2.47,0,0,0,99.5,34Zm.38,2.38L93,43.91l-6.93-5.69a3.18,3.18,0,0,0,.46-1.49l13-1.46A2.89,2.89,0,0,0,99.88,36.4Zm-14.6,2.77,6.88,5.66-6.34,6.88a3,3,0,0,0-1.51-.52l-.52-11.27A3.11,3.11,0,0,0,85.28,39.17Zm7.83,6.44,2.44,2-3.41,6.85-4.69-.16a3.07,3.07,0,0,0-.7-1.76Zm.84-.92,6.72-7.31h0v0l-4.58,9.07Zm-6.28-19.1L72.5,17.69a2.21,2.21,0,0,0,.16-.82L93,15Zm-12-21a60.32,60.32,0,0,1,16.66,9.13L72.55,15.63h0a3.47,3.47,0,0,0-2.11-2.36L72.5,3.6C73.55,3.9,74.61,4.25,75.67,4.63ZM55.57,1.49A51.84,51.84,0,0,1,71.31,3.28L69.19,13h-.11a3.6,3.6,0,0,0-3.19,2h0L50.42,10.37a2.63,2.63,0,0,0,.06-.49,3.52,3.52,0,0,0-.87-2.32l5.93-6.07ZM46.49,2.68a50.65,50.65,0,0,1,7.24-1.11h0l-5.09,5.2a3.67,3.67,0,0,0-1.79-.49A3.61,3.61,0,0,0,43.79,8l-7.37-2.6C39.91,4.3,43.32,3.38,46.49,2.68ZM34.55,6.07l8.8,3.14a3.07,3.07,0,0,0-.08.67c0,.19,0,.41,0,.6L31.08,14.73a3.56,3.56,0,0,0-3.17-2,3.6,3.6,0,0,0-3.52,2.85l-8.18-.3A71.25,71.25,0,0,1,34.55,6.07ZM14.67,16.49l9.67.38a3.88,3.88,0,0,0,.54,1.47L10.55,31.12a3.75,3.75,0,0,0-1.73-.43H8.6L7,24.46A40.18,40.18,0,0,1,14.67,16.49ZM6,25.81,7.41,31a3.62,3.62,0,0,0-2.2,3.3c0,.17,0,.33,0,.49L1.85,35.83A28.3,28.3,0,0,1,6,25.81ZM1.64,37.22v0l4-1.25a3.67,3.67,0,0,0,2,1.74L5.11,51.25a20.58,20.58,0,0,1-2.55-4.58A19.11,19.11,0,0,1,1.64,37.22Zm15.44,22a24,24,0,0,1-10.7-6.44L21.19,40.63a4.27,4.27,0,0,0,1,.62L18.46,59.64C18,59.54,17.54,59.4,17.08,59.26Zm9.86,1.58h0a33.92,33.92,0,0,1-7.26-.9l3.74-18.42h.19a3.55,3.55,0,0,0,1.43-.3l4.8,6.91Zm3.87-11.49L39.88,60l-11.72.87Zm12.05,22c-5.63-.17-10.32-3.2-14.32-9.24l12.16-.92L44,71.35A10.27,10.27,0,0,1,42.86,71.35Zm-1-10.73v0l4-6.31a3.69,3.69,0,0,0,1.33.24A3.44,3.44,0,0,0,50,53.17l8.8,5.2L45.14,70.91Zm16.27,6.66a51.14,51.14,0,0,1-11.29,3.77L59.52,59.4l1.95,6.5C60.39,66.31,59.28,66.79,58.11,67.28Zm26.5-3.84a18.75,18.75,0,0,1-6.07-.93L77,62l5.07,12.67L71.77,66.88l1,4.57c-.84-.73-2-1.62-3.14-2.52-3.09-2.27-5.37-3.38-7-3.33l-2.06-6.82h0l19.89-2.9a3.57,3.57,0,0,0,3.41,2.44A2.92,2.92,0,0,0,85,58.13l2.17,5.14A21.17,21.17,0,0,1,84.61,63.44Zm1.49-5.88a3.29,3.29,0,0,0,1.3-2l4.11.16-3.36,6.72Zm14.11.08a13,13,0,0,0-3.93,1.73,18.41,18.41,0,0,1-7,3.5l3.57-7.15,11.16.43A33.9,33.9,0,0,1,100.21,57.64Zm-6.72-3.12,3-6.09,7.94,6.5Zm3.63-7.23L101.75,38a3.12,3.12,0,0,0,1.22.24l2.49,15.9ZM109.58,50a8.79,8.79,0,0,1-2.84,4.44l-2.55-16.38a3.16,3.16,0,0,0,1.6-1.14l4.11,2.79A23.07,23.07,0,0,1,109.58,50Z"/></svg>